<svg height="512" viewBox="0 0 512 512" width="512" xmlns="http://www.w3.org/2000/svg"><g id="flat"><circle cx="432" cy="80" fill="#43dcfe" r="56"/><path d="m488 376h-96a16 16 0 0 1 -16-16 16 16 0 0 1 16-16h96" fill="#eaeae8"/><path d="m488 408h-96a16 16 0 0 1 -16-16 16 16 0 0 1 16-16h96" fill="#eaeae8"/><path d="m464 344h-48l-8-56h64z" fill="#dc651e"/><path d="m475.056 224a12.951 12.951 0 0 0 -5.789 1.366l-13.267 6.634v-20a20 20 0 0 0 -40 0v76h40v-24l24.845-12.422a12.945 12.945 0 0 0 7.155-11.578v-3.056a12.944 12.944 0 0 0 -12.944-12.944z" fill="#02a437"/><path d="m488 416h-96a24 24 0 0 1 0-48h96v16h-96a8 8 0 0 0 0 16h96z" fill="#ea9d2d"/><path d="m488 384h-96a24 24 0 0 1 0-48h96v16h-96a8 8 0 0 0 0 16h96z" fill="#ea9d2d"/><path d="m24 408h464v32h-464z" fill="#683b0d"/><path d="m56 440h32v48h-32z" fill="#533222"/><path d="m424 440h32v48h-32z" fill="#533222"/><path d="m136 168h224a16 16 0 0 1 16 16v144a0 0 0 0 1 0 0h-256a0 0 0 0 1 0 0v-144a16 16 0 0 1 16-16z" fill="#0296e5"/><path d="m120 328h256a0 0 0 0 1 0 0v16a16 16 0 0 1 -16 16h-224a16 16 0 0 1 -16-16v-16a0 0 0 0 1 0 0z" fill="#eaeae8"/><path d="m80 384a8 8 0 0 1 -7.508-5.236l-56-152a8 8 0 0 1 .352-6.344l64-128a8 8 0 0 1 14.31 7.156l-62.454 124.906 57.47 155.81c1.527 4.145-3.262 1.687-7.407 3.215a7.987 7.987 0 0 1 -2.763.493z" fill="#961b20"/><path d="m44 376h72a12 12 0 0 1 12 12v20a0 0 0 0 1 0 0h-96a0 0 0 0 1 0 0v-20a12 12 0 0 1 12-12z" fill="#e82f3e"/><path d="m261.842 360a16 16 0 1 1 -27.684 0h-34.158l-8 48h112l-8-48z" fill="#cbcbcb"/><path d="m432 144a64 64 0 1 1 64-64 64.072 64.072 0 0 1 -64 64zm0-112a48 48 0 1 0 48 48 48.053 48.053 0 0 0 -48-48z" fill="#0296e5"/><path d="m455.992 104a7.969 7.969 0 0 1 -4.43-1.345l-24-16a8 8 0 0 1 -3.562-6.655v-32a8 8 0 0 1 16 0v27.719l20.438 13.625a8 8 0 0 1 -4.446 14.656z" fill="#0296e5"/><path d="m344 272a8 8 0 0 1 -8-8v-16a8 8 0 0 1 16 0v16a8 8 0 0 1 -8 8z" fill="#2cbff4"/><path d="m344 304a8 8 0 0 1 -8-8v-8a8 8 0 0 1 16 0v8a8 8 0 0 1 -8 8z" fill="#2cbff4"/><path d="m96.931 42.4a24 24 0 0 1 24 24v24a0 0 0 0 1 0 0h-48a0 0 0 0 1 0 0v-24a24 24 0 0 1 24-24z" fill="#961b20" transform="matrix(.903 -.43 .43 .903 -19.137 48.15)"/><path d="m174.675 117.978-86.666 41.293-13.764-28.889a24 24 0 0 1 11.343-31.989l43.333-20.646a24 24 0 0 1 31.99 11.343z" fill="#e82f3e"/></g></svg>