<svg height="512" viewBox="0 0 128 128" width="512" xmlns="http://www.w3.org/2000/svg"><g id="number"><text fill="#24253a" font-family="MyriadPro-Regular, Myriad Pro" font-size="40" letter-spacing=".002em" transform="translate(43.419 -282.265)">10<tspan x="0" y="228">20</tspan><tspan x="0" y="456">30</tspan><tspan x="0" y="684">40</tspan><tspan x="0" y="912">50</tspan><tspan x="0" y="1140">60</tspan><tspan x="0" y="1368">70</tspan><tspan x="0" y="1596">80</tspan><tspan x="0" y="1824">90</tspan><tspan x="-10.299" y="2052">100</tspan><tspan x="-10.299" y="2280">110</tspan><tspan x="-10.299" y="2508">120</tspan><tspan x="-10.299" y="2736">130</tspan><tspan x="-10.299" y="2964">140</tspan><tspan x="-10.299" y="3192">150</tspan><tspan x="-10.299" y="3420">160</tspan><tspan x="-10.299" y="3648">170</tspan><tspan x="-10.299" y="3876">180</tspan><tspan x="-10.299" y="4104">190</tspan><tspan x="-10.299" y="4332">200</tspan><tspan x="-10.299" y="4560">210</tspan><tspan x="-10.299" y="4788">220</tspan><tspan x="-10.299" y="5016">230</tspan><tspan x="-10.299" y="5244">240</tspan><tspan x="-10.299" y="5472">250</tspan></text></g><g id="Circle_Grid" data-name="Circle Grid"><circle cx="64" cy="64" fill="#ef5261" r="64"/></g><g id="icon"><path d="m32.838 33.255h29.2a.7.7 0 0 1 .7.7v20.59a0 0 0 0 1 0 0h-30.598a0 0 0 0 1 0 0v-20.592a.7.7 0 0 1 .698-.698z" fill="#575b6d"/><path d="m39.411 29.475h16.054v27.105h-16.054z" fill="#69b0ee" transform="matrix(0 1 -1 0 90.465 -4.41)"/><path d="m64.83 53.269v.756a2.787 2.787 0 0 1 -.7 1.865 2.273 2.273 0 0 1 -1.685.772h-30.025a2.254 2.254 0 0 1 -1.673-.768l-.013-.014a2.764 2.764 0 0 1 -.691-1.848v-.763a.449.449 0 0 1 .424-.469h13.569a.185.185 0 0 1 .175.193 1.476 1.476 0 0 0 1.4 1.545h3.665a1.476 1.476 0 0 0 1.4-1.545.185.185 0 0 1 .175-.193h13.554a.449.449 0 0 1 .425.469z" fill="#414451"/><path d="m53.025 34.999-5.568 16.056h-.738l5.568-16.056z" fill="#eeefee" opacity=".5"/><path d="m50.065 34.999-5.568 16.056h-2.648l5.568-16.056z" fill="#eeefee" opacity=".5"/><g fill="#f6b863"><path d="m26.417 59.059h4.032v40.112h-4.032z"/><path d="m68.852 95.686.792 3.485h4.839l.792-3.485z"/><path d="m93.178 95.686.792 3.485h4.84l.792-3.485z"/><path d="m66.87 61.656h34.713v35.192h-34.713z"/><path d="m23 56.634h82v5.432h-82z"/></g><path d="m70.12 66.316h28.214v10.722h-28.214z" fill="#eaa14e"/><path d="m88.35 73.091h-8.25a1.31 1.31 0 0 1 -1.309-1.308v-1.546h1.23v1.625h8.329l.078-1.625h1.23v1.546a1.31 1.31 0 0 1 -1.308 1.308z" fill="#575b6d"/><path d="m70.12 81.466h28.214v10.722h-28.214z" fill="#eaa14e"/><path d="m88.35 88.241h-8.25a1.31 1.31 0 0 1 -1.309-1.308v-1.547h1.23v1.625h8.329l.078-1.625h1.23v1.546a1.31 1.31 0 0 1 -1.308 1.309z" fill="#575b6d"/><path d="m29.351 87.534h39.47v3.007h-39.47z" fill="#f6b863"/><path d="m77.725 56.662h-7.025a3.515 3.515 0 0 1 7.03 0z" fill="#575b6d"/><circle cx="84.443" cy="37.675" fill="#f6c863" r="1.388"/><path d="m92.409 55.467h-1.115v-6.893l7.815-9.07-8.55-7.717.678-.885 9.411 8.602-8.239 9.418z" fill="#dbd8dd"/><path d="m89.813 54.024v.687h-1.093v-.687a.547.547 0 0 1 .547-.547.547.547 0 0 1 .546.547z" fill="#ef5261"/><circle cx="99.766" cy="39.504" fill="#575b6d" r="1.678"/><circle cx="99.766" cy="39.504" fill="#9a9eaf" r=".882"/><circle cx="91.78" cy="48.748" fill="#575b6d" r="1.678"/><circle cx="91.78" cy="48.748" fill="#9a9eaf" r=".882"/><path d="m88.059 30.819 1.335-1.419a1.833 1.833 0 0 1 2.652-.015l.314.326a1.833 1.833 0 0 1 -.043 2.589l-1.605 1.56z" fill="#575b6d"/><path d="m82.7 34.374 2.683-2.974a2.8 2.8 0 0 1 3.989-.171l1.217 1.137a2.8 2.8 0 0 1 .218 3.861l-2.8 3.281z" fill="#dbd8dd"/><path d="m81.794 34.177a.85.85 0 0 0 .089 1.16l5.31 4.849a.775.775 0 0 0 1.044 0 .775.775 0 0 0 .014-1.136l-5.209-4.958a.85.85 0 0 0 -1.248.085z" fill="#575b6d"/><path d="m96.231 55.321v1.313h-8.831v-1.313a1.021 1.021 0 0 1 1.017-1.021h6.793a1.021 1.021 0 0 1 1.021 1.021z" fill="#575b6d"/><path d="m26.417 62.066h4.03v1.87h-4.03z" fill="#eaa14e"/><path d="m66.87 62.066h34.713v1.87h-34.713z" fill="#eaa14e"/></g></svg>