<svg id="Capa_1" enable-background="new 0 0 483.254 483.254" height="512" viewBox="0 0 483.254 483.254" width="512" xmlns="http://www.w3.org/2000/svg"><g><g id="icon_90_"><path d="m57.979 60.448h172.086c2.278 0 4.125 1.847 4.125 4.125v121.344h-180.325v-121.355c.007-2.27 1.845-4.107 4.114-4.114z" fill="#575b6d"/><path d="m64.149 70.738h159.739v94.612h-159.739z" fill="#69b0ee"/><path d="m246.519 178.398v4.455c.026 4.047-1.443 7.961-4.125 10.991-2.513 2.859-6.124 4.513-9.93 4.55h-176.949c-3.781-.037-7.367-1.683-9.86-4.526l-.077-.083c-2.651-3.006-4.101-6.883-4.072-10.891v-4.497c-.067-1.451 1.048-2.685 2.499-2.764h79.967c.598.032 1.058.539 1.031 1.137-.23 4.791 3.461 8.864 8.251 9.105h21.599c4.79-.241 8.481-4.315 8.251-9.105-.027-.598.434-1.106 1.031-1.137h79.878c1.454.077 2.573 1.311 2.506 2.765z" fill="#414451"/><path d="m176.948 70.726-32.814 94.624h-4.35l32.814-94.624z" fill="#eeefee" opacity=".5"/><path d="m159.503 70.726-32.814 94.624h-15.605l32.814-94.624z" fill="#eeefee" opacity=".5"/><g fill="#f6b863"><path d="m20.138 212.52h23.762v236.394h-23.762z"/><path d="m270.222 428.376 4.667 20.538h28.518l4.668-20.538z"/><path d="m413.583 428.376 4.668 20.538h28.524l4.667-20.538z"/><path d="m258.541 227.825h204.576v207.399h-204.576z"/><path d="m0 198.229h483.254v32.013h-483.254z"/></g><path d="m277.694 255.288h166.275v63.188h-166.275z" fill="#eaa14e"/><path d="m385.13 295.215h-48.62c-4.257-.003-7.708-3.452-7.714-7.708v-9.111h7.249v9.577h49.086l.46-9.577h7.249v9.111c-.008 4.255-3.455 7.702-7.71 7.708z" fill="#575b6d"/><path d="m277.694 344.572h166.275v63.188h-166.275z" fill="#eaa14e"/><path d="m385.13 384.5h-48.62c-4.257-.003-7.708-3.452-7.714-7.708v-9.117h7.249v9.577h49.086l.46-9.577h7.249v9.111c-.005 4.256-3.453 7.707-7.71 7.714z" fill="#575b6d"/><path d="m37.429 380.333h232.61v17.721h-232.61z" fill="#f6b863"/><path d="m322.513 198.394h-41.401c.007-11.441 9.287-20.709 20.728-20.702 11.431.007 20.695 9.272 20.702 20.702z" fill="#575b6d"/><circle cx="362.105" cy="86.497" fill="#f6c863" r="8.18"/><path d="m409.051 191.351h-6.571v-40.623l46.057-53.452-50.388-45.479 3.995-5.216 55.463 50.695-48.556 55.503z" fill="#dbd8dd"/><path d="m393.752 182.847v4.049h-6.441v-4.049c0-1.78 1.443-3.224 3.224-3.224 1.777.004 3.217 1.446 3.217 3.224z" fill="#ef5261"/><circle cx="452.409" cy="97.276" fill="#575b6d" r="9.889"/><circle cx="452.409" cy="97.276" fill="#9a9eaf" r="5.198"/><circle cx="405.344" cy="151.754" fill="#575b6d" r="9.889"/><circle cx="405.344" cy="151.754" fill="#9a9eaf" r="5.198"/><path d="m383.415 46.092 7.868-8.363c4.095-4.339 10.931-4.537 15.271-.443.122.115.242.234.359.354l1.851 1.921c4.137 4.286 4.023 11.112-.253 15.258l-9.459 9.194z" fill="#575b6d"/><path d="m351.833 67.043 15.812-17.527c6.106-6.765 16.54-7.3 23.306-1.194.068.061.136.123.203.186l7.172 6.701c6.438 6.024 7.004 16.044 1.285 22.754l-16.501 19.336z" fill="#dbd8dd"/><path d="m346.493 65.882c-1.656 2.06-1.427 5.053.524 6.836l31.294 28.577c1.743 1.589 4.409 1.589 6.153 0 1.87-1.693 2.013-4.581.32-6.451-.076-.084-.155-.165-.238-.244l-30.698-29.219c-2.008-1.904-5.178-1.82-7.082.188-.095.1-.186.205-.273.313z" fill="#575b6d"/><path d="m431.576 190.491v7.738h-52.044v-7.738c0-3.314 2.68-6.004 5.994-6.017h40.033c3.323 0 6.017 2.693 6.017 6.017z" fill="#575b6d"/><path d="m20.138 230.241h23.75v11.021h-23.75z" fill="#eaa14e"/><path d="m258.541 230.241h204.576v11.021h-204.576z" fill="#eaa14e"/></g></g></svg>