<svg height="512" viewBox="0 0 512 512" width="512" xmlns="http://www.w3.org/2000/svg"><g id="flat"><path d="m440 176a8 8 0 0 1 -8-8v-48a8 8 0 0 1 16 0v48a8 8 0 0 1 -8 8z" fill="#027226"/><path d="m328 216h160v272h-160z" fill="#683b0d"/><path d="m360 408h96v48h-96z" fill="#a05b14"/><path d="m416 440h-16a8 8 0 0 1 0-16h16a8 8 0 0 1 0 16z" fill="#cbcbcb"/><path d="m360 328h96v48h-96z" fill="#a05b14"/><path d="m416 360h-16a8 8 0 0 1 0-16h16a8 8 0 0 1 0 16z" fill="#cbcbcb"/><path d="m360 248h96v48h-96z" fill="#a05b14"/><path d="m416 280h-16a8 8 0 0 1 0-16h16a8 8 0 0 1 0 16z" fill="#cbcbcb"/><path d="m24 216h304v32h-304z" fill="#55300b"/><g fill="#422509"><path d="m24 248h32v240h-32z"/><path d="m120 248h32v240h-32z"/><path d="m24 216h128v32h-128z"/></g><path d="m152 248h176v64h-176z" fill="#a05b14"/><path d="m256 288h-32a8 8 0 0 1 0-16h32a8 8 0 0 1 0 16z" fill="#a8a8a8"/><path d="m56 248h64v96h-64z" fill="#683b0d"/><path d="m24 144h48v72h-48z" fill="#fbb540"/><path d="m72 144h32l16 16h32v56h-80z" fill="#d18d28"/><path d="m144 160h-24l-16-16h-48v-32h88z" fill="#cbcbcb"/><path d="m24 144v-64h96v32h-64v32z" fill="#eaeae8"/><path d="m368 136h-224v-96a16 16 0 0 1 16-16h192a16 16 0 0 1 16 16z" fill="#2ad3b3"/><path d="m232 168h48l8 48h-64z" fill="#cbcbcb"/><path d="m144 136h224a0 0 0 0 1 0 0v16a16 16 0 0 1 -16 16h-192a16 16 0 0 1 -16-16v-16a0 0 0 0 1 0 0z" fill="#eaeae8"/><path d="m464 216h-48l-8-48h64z" fill="#55300b"/><path d="m440 72-8.61 12.915a44 44 0 0 0 -7.39 24.407v.789a28.944 28.944 0 0 0 16 25.889 28.944 28.944 0 0 0 16-25.889v-.789a44 44 0 0 0 -7.39-24.407z" fill="#02a437"/><path d="m400 104h14a26 26 0 0 1 26 26v6a0 0 0 0 1 0 0h-14a26 26 0 0 1 -26-26v-6a0 0 0 0 1 0 0z" fill="#029532"/><path d="m466 104h14a0 0 0 0 1 0 0v6a26 26 0 0 1 -26 26h-14a0 0 0 0 1 0 0v-6a26 26 0 0 1 26-26z" fill="#029532" transform="matrix(-1 0 0 -1 920 240)"/><path d="m56 408h64v32h-64z" fill="#683b0d"/><path d="m152 312h176v32h-176z" fill="#55300b"/></g></svg>